<svg xmlns="http://www.w3.org/2000/svg" viewBox="0 0 321.17 100.57"><defs><style>.cls-1{fill:#080808;}</style></defs><g id="レイヤー_2" data-name="レイヤー 2"><g id="Text"><path class="cls-1" d="M18.18,38.53a14.29,14.29,0,0,1,13.31-7.67,13.31,13.31,0,0,1,8,2.48,11.54,11.54,0,0,1,4.06,5.55,16.45,16.45,0,0,1,14.76-8,13.07,13.07,0,0,1,12.4,7.49A23.71,23.71,0,0,1,73.1,49.5V76a4.35,4.35,0,0,1-1.27,3.2A6,6,0,0,1,67.28,81q-3.84,0-5.19-2.85A4.57,4.57,0,0,1,61.64,76V50.63A13.71,13.71,0,0,0,60.55,45Q58.8,41.1,55.18,41.1c-2.19,0-4.24,1.1-6.13,3.3a12,12,0,0,0-3,8V76.12a4.46,4.46,0,0,1-1.17,3.07A6,6,0,0,1,40.29,81a5.51,5.51,0,0,1-5.14-2.57,4.25,4.25,0,0,1-.59-2.26v-25a15.39,15.39,0,0,0-1.17-6.37c-1.08-2.4-2.72-3.61-4.92-3.61s-4.41,1.22-6.36,3.66a13,13,0,0,0-3,8.26V76a4.39,4.39,0,0,1-1.08,3A6,6,0,0,1,13.36,81c-2.5,0-4.23-.91-5.19-2.71A4.71,4.71,0,0,1,7.67,76V35.92A4.43,4.43,0,0,1,8.84,32.8a4.82,4.82,0,0,1,3.7-1.58q4.83,0,5.37,4.79Z" transform="translate(-6.4 -11.46)"/><path class="cls-1" d="M100.9,30.59q10.2,0,16.78,6.77,6.91,7.08,6.91,18.59a27.9,27.9,0,0,1-4.24,15.57q-6.55,10-19.54,10-11.37,0-18-7.94-5.77-6.92-5.78-17.65,0-11.51,6.86-18.49Q90.56,30.59,100.9,30.59Zm-.14,9.79a10.28,10.28,0,0,0-9,5A18.58,18.58,0,0,0,89,55.86a21.52,21.52,0,0,0,1.53,8.44c2,4.75,5.5,7.13,10.38,7.13a10.19,10.19,0,0,0,9-4.88,19.07,19.07,0,0,0,2.75-10.69q0-6.59-2.93-10.74A10.37,10.37,0,0,0,100.76,40.38Z" transform="translate(-6.4 -11.46)"/><path class="cls-1" d="M138.9,39.26A19.78,19.78,0,0,1,145,33.75a20.25,20.25,0,0,1,10.38-2.89q8.16,0,13,5.51,4.32,4.83,4.33,14.44V75.94A4.53,4.53,0,0,1,171.65,79,6.1,6.1,0,0,1,166.83,81a5.63,5.63,0,0,1-5.1-2.44,4.67,4.67,0,0,1-.72-2.57V52.11a15.75,15.75,0,0,0-1.27-6.67,6.86,6.86,0,0,0-6.63-4.34q-4.87,0-9.3,5.06a12.3,12.3,0,0,0-3.51,8.17V75.94A4.51,4.51,0,0,1,139,79.19a6.14,6.14,0,0,1-4.6,1.76,5.67,5.67,0,0,1-5.14-2.44,4.46,4.46,0,0,1-.73-2.57V36a5.16,5.16,0,0,1,.86-3,4.38,4.38,0,0,1,3.88-1.85c2.77,0,4.42,1.51,5,4.52Z" transform="translate(-6.4 -11.46)"/><path class="cls-1" d="M200.54,30.59q10.2,0,16.78,6.77,6.92,7.08,6.91,18.59A27.9,27.9,0,0,1,220,71.52q-6.56,10-19.54,10-11.37,0-18-7.94-5.78-6.92-5.77-17.65,0-11.51,6.85-18.49Q190.22,30.59,200.54,30.59Zm-.14,9.79a10.29,10.29,0,0,0-9,5,18.58,18.58,0,0,0-2.75,10.51,21.52,21.52,0,0,0,1.53,8.44q3.08,7.13,10.38,7.13a10.19,10.19,0,0,0,9-4.88,19.07,19.07,0,0,0,2.76-10.69q0-6.59-2.94-10.74A10.37,10.37,0,0,0,200.4,40.38Z" transform="translate(-6.4 -11.46)"/><path class="cls-1" d="M238.54,72.92l-.54,3.7c-.42,2.88-2.08,4.33-5,4.33-3.22,0-4.82-1.64-4.82-4.92V16.42a4.61,4.61,0,0,1,1.12-3.11A6,6,0,0,1,234,11.46a5.59,5.59,0,0,1,5,2.35,4.53,4.53,0,0,1,.77,2.61V37.13q5.06-6.27,14.21-6.27a20.51,20.51,0,0,1,17.19,8.58A26.76,26.76,0,0,1,276.35,56q0,10.41-5.32,17.28a20.33,20.33,0,0,1-16.88,8,18.48,18.48,0,0,1-12-4.2A15.26,15.26,0,0,1,238.54,72.92Zm1.13-19.72v3.61a14.72,14.72,0,0,0,5.55,12,10.84,10.84,0,0,0,6.95,2.58,10.57,10.57,0,0,0,8.7-4.24q3.39-4.24,3.39-11.24,0-7.71-4.38-12.05a10.92,10.92,0,0,0-7.94-3.25,11.69,11.69,0,0,0-7.4,2.67A12.08,12.08,0,0,0,239.67,53.2Z" transform="translate(-6.4 -11.46)"/><path class="cls-1" d="M303.88,30.59a22.42,22.42,0,0,1,16.78,6.77q6.9,7.08,6.91,18.59a27.83,27.83,0,0,1-4.25,15.57q-6.54,10-19.53,10-11.37,0-18-7.94-5.77-6.92-5.78-17.65,0-11.51,6.86-18.49Q293.54,30.59,303.88,30.59Zm-.14,9.79a10.28,10.28,0,0,0-9,5A18.59,18.59,0,0,0,292,55.86a21.51,21.51,0,0,0,1.54,8.44q3.06,7.13,10.38,7.13a10.19,10.19,0,0,0,9-4.88,19.07,19.07,0,0,0,2.75-10.69q0-6.59-2.93-10.74A10.38,10.38,0,0,0,303.74,40.38Z" transform="translate(-6.4 -11.46)"/><path class="cls-1" d="M9.17,89h3.65a10.32,10.32,0,0,1,5.57,1.43,7.5,7.5,0,0,1,2.69,2.92,9.38,9.38,0,0,1,1,4.4,8.91,8.91,0,0,1-1.77,5.61q-2.46,3.2-7.58,3.19H9.17a2.43,2.43,0,0,1-2.77-2.73V91.7A2.43,2.43,0,0,1,9.17,89Zm.53,3.37v10.79c0,.37.19.55.57.55h2a7.42,7.42,0,0,0,3.78-.81q2.52-1.53,2.52-5.14a6.63,6.63,0,0,0-.91-3.55A4.67,4.67,0,0,0,14.58,92a11.07,11.07,0,0,0-2.24-.2H10.27C9.89,91.78,9.7,92,9.7,92.33Z" transform="translate(-6.4 -11.46)"/><path class="cls-1" d="M28.81,99.83v5.65a1.14,1.14,0,0,1-.33.84,1.55,1.55,0,0,1-1.19.46,1.46,1.46,0,0,1-1.31-.61,1.19,1.19,0,0,1-.2-.69V95a1.15,1.15,0,0,1,.3-.8,1.51,1.51,0,0,1,1.13-.44,1.31,1.31,0,0,1,1.27.68,1,1,0,0,1,.14.56v1.24a6.92,6.92,0,0,1,1.2-1.6,3.81,3.81,0,0,1,2.64-1,3,3,0,0,1,2.08.76,1.64,1.64,0,0,1,.62,1.26,1.49,1.49,0,0,1-.34.94,1.46,1.46,0,0,1-1.21.6A1.29,1.29,0,0,1,32.8,97a1.56,1.56,0,0,0-1-.34C30.63,96.63,29.63,97.7,28.81,99.83Z" transform="translate(-6.4 -11.46)"/><path class="cls-1" d="M46.42,95.48l.07-.77c.06-.64.47-1,1.26-1a1.31,1.31,0,0,1,1.29.72,1.23,1.23,0,0,1,.12.55V105.5a1.39,1.39,0,0,1-.18.71,1.27,1.27,0,0,1-1.17.57,1.22,1.22,0,0,1-1.32-1.18l-.13-.81a4.17,4.17,0,0,1-4,2.09,5.24,5.24,0,0,1-4.62-2.42,7.26,7.26,0,0,1-1.15-4.16,6.94,6.94,0,0,1,1.17-4,5.56,5.56,0,0,1,2.49-2.07,5.42,5.42,0,0,1,2.22-.46A4.64,4.64,0,0,1,46.42,95.48Zm-.25,5v-.94a3.13,3.13,0,0,0-1-2.27,3.07,3.07,0,0,0-2.25-1,2.84,2.84,0,0,0-2.39,1.23,4.57,4.57,0,0,0-.79,2.76,4.93,4.93,0,0,0,.56,2.45,2.85,2.85,0,0,0,4.54.76A3.9,3.9,0,0,0,46.17,100.5Z" transform="translate(-6.4 -11.46)"/><path class="cls-1" d="M57.26,102.88l2.12-7.64a1.69,1.69,0,0,1,1.76-1.39,1.71,1.71,0,0,1,1.8,1.39l2.11,7.64L67.26,95a1.37,1.37,0,0,1,1.38-1.17,1.84,1.84,0,0,1,.77.18,1.29,1.29,0,0,1,.85,1.21,1.88,1.88,0,0,1-.09.57l-3,9.5a1.88,1.88,0,0,1-1.94,1.49,2,2,0,0,1-2-1.66l-2.05-7.21-2,7.21a2,2,0,0,1-2,1.66,1.9,1.9,0,0,1-2-1.49l-3-9.5a1.78,1.78,0,0,1-.1-.59A1.27,1.27,0,0,1,52.85,94a2,2,0,0,1,.82-.2A1.37,1.37,0,0,1,55.05,95Z" transform="translate(-6.4 -11.46)"/><path class="cls-1" d="M75.11,88.55a1.89,1.89,0,0,1,1,.29A1.79,1.79,0,0,1,77,90.48a1.93,1.93,0,0,1-1.93,1.92,2,2,0,0,1-.92-.23,1.86,1.86,0,0,1-1-1.71A1.82,1.82,0,0,1,73.84,89,1.91,1.91,0,0,1,75.11,88.55Zm1.53,6.6v10.31a1.16,1.16,0,0,1-.3.81,1.56,1.56,0,0,1-1.25.51,1.48,1.48,0,0,1-1.34-.64,1.22,1.22,0,0,1-.19-.68V95.15a1.18,1.18,0,0,1,.61-1.07,1.76,1.76,0,0,1,.93-.26,1.79,1.79,0,0,1,1.06.34A1.19,1.19,0,0,1,76.64,95.15Z" transform="translate(-6.4 -11.46)"/><path class="cls-1" d="M84.21,95.94a5.13,5.13,0,0,1,1.58-1.44,5.3,5.3,0,0,1,2.7-.75,4.34,4.34,0,0,1,3.4,1.43A5.49,5.49,0,0,1,93,98.94v6.54a1.18,1.18,0,0,1-.28.8,1.58,1.58,0,0,1-1.25.5,1.47,1.47,0,0,1-1.33-.63,1.19,1.19,0,0,1-.19-.67v-6.2a4.09,4.09,0,0,0-.33-1.74,1.77,1.77,0,0,0-1.72-1.12,3.88,3.88,0,0,0-3.34,3.44v5.62a1.14,1.14,0,0,1-.33.84,1.55,1.55,0,0,1-1.19.46,1.47,1.47,0,0,1-1.34-.63,1.15,1.15,0,0,1-.19-.67V95.09a1.41,1.41,0,0,1,.22-.79,1.15,1.15,0,0,1,1-.48A1.24,1.24,0,0,1,84.05,95Z" transform="translate(-6.4 -11.46)"/><path class="cls-1" d="M106.2,95.65l.3-1a1.18,1.18,0,0,1,1.26-.87,1.13,1.13,0,0,1,.87.37,1.24,1.24,0,0,1,.3.85v10.85a6.18,6.18,0,0,1-1.68,4.72,6.37,6.37,0,0,1-4.5,1.44A7.33,7.33,0,0,1,98,110.65a1.87,1.87,0,0,1-.81-1.44,1.19,1.19,0,0,1,.25-.75,1.27,1.27,0,0,1,1-.59,1.74,1.74,0,0,1,1,.45,5.27,5.27,0,0,0,3.27,1.12,2.87,2.87,0,0,0,2.76-1.51,3.74,3.74,0,0,0,.42-1.82v-1.73a3.55,3.55,0,0,1-1.06,1.15,4.58,4.58,0,0,1-2.61.77A5.24,5.24,0,0,1,97.76,104a6.6,6.6,0,0,1-1.21-4,6.7,6.7,0,0,1,.82-3.32,5.64,5.64,0,0,1,2.5-2.38,5.19,5.19,0,0,1,2.38-.58A4.71,4.71,0,0,1,106.2,95.65Zm-.3,4.55v-.68a3.3,3.3,0,0,0-1-2.42,2.81,2.81,0,0,0-2.09-.87,2.9,2.9,0,0,0-2.63,1.51,4.42,4.42,0,0,0-.58,2.32,4.53,4.53,0,0,0,.62,2.43,2.88,2.88,0,0,0,2.58,1.43,2.79,2.79,0,0,0,2.33-1.25A4,4,0,0,0,105.9,100.2Z" transform="translate(-6.4 -11.46)"/><path class="cls-1" d="M126.78,93.68a5.47,5.47,0,0,1,4,1.46,2.14,2.14,0,0,1,.76,1.51,1.27,1.27,0,0,1-.47,1,1.43,1.43,0,0,1-1,.36,1.27,1.27,0,0,1-1-.5,2.94,2.94,0,0,0-2.35-1.22,2.89,2.89,0,0,0-2.46,1.29,4.47,4.47,0,0,0-.79,2.72,4.32,4.32,0,0,0,.89,2.77,3,3,0,0,0,2.42,1.22,3.15,3.15,0,0,0,2.49-1.4,1.09,1.09,0,0,1,.9-.45,1.46,1.46,0,0,1,1,.4,1.43,1.43,0,0,1,.53,1.15,1.9,1.9,0,0,1-.54,1.24,5.45,5.45,0,0,1-4.36,1.7,6.15,6.15,0,0,1-4.74-2,6.65,6.65,0,0,1-1.72-4.71,6.91,6.91,0,0,1,.81-3.34,5.92,5.92,0,0,1,3.88-3A7,7,0,0,1,126.78,93.68Z" transform="translate(-6.4 -11.46)"/><path class="cls-1" d="M138.14,96a4.28,4.28,0,0,1,1.35-1.36,5.17,5.17,0,0,1,2.84-.8,3.87,3.87,0,0,1,3.57,2,6.05,6.05,0,0,1,.68,3v6.66a1.14,1.14,0,0,1-.39.9,1.67,1.67,0,0,1-1.16.4,1.44,1.44,0,0,1-1.31-.63,1.19,1.19,0,0,1-.19-.67v-6.1a4.13,4.13,0,0,0-.34-1.75,1.81,1.81,0,0,0-1.72-1.14,3,3,0,0,0-2.27,1.15,3.44,3.44,0,0,0-1.06,2.22v5.62a1.18,1.18,0,0,1-.28.8,1.58,1.58,0,0,1-1.25.5,1.49,1.49,0,0,1-1.34-.63,1.22,1.22,0,0,1-.18-.67V90a1.15,1.15,0,0,1,.28-.78,1.57,1.57,0,0,1,1.25-.51,1.48,1.48,0,0,1,1.32.61,1.23,1.23,0,0,1,.2.68Z" transform="translate(-6.4 -11.46)"/><path class="cls-1" d="M159.83,95.48l.07-.77q.09-1,1.26-1a1.3,1.3,0,0,1,1.29.72,1.23,1.23,0,0,1,.12.55V105.5a1.39,1.39,0,0,1-.18.71,1.26,1.26,0,0,1-1.17.57,1.22,1.22,0,0,1-1.32-1.18l-.12-.81a4.19,4.19,0,0,1-4,2.09,5.25,5.25,0,0,1-4.63-2.42A7.26,7.26,0,0,1,150,100.3a6.94,6.94,0,0,1,1.17-4,5.66,5.66,0,0,1,2.49-2.07,5.49,5.49,0,0,1,2.22-.46A4.64,4.64,0,0,1,159.83,95.48Zm-.24,5v-.94a3.1,3.1,0,0,0-1-2.27,3.05,3.05,0,0,0-2.25-1A2.81,2.81,0,0,0,154,97.53a4.58,4.58,0,0,0-.8,2.76,5,5,0,0,0,.56,2.45,2.86,2.86,0,0,0,4.55.76A3.9,3.9,0,0,0,159.59,100.5Z" transform="translate(-6.4 -11.46)"/><path class="cls-1" d="M168.92,94.12V91.45a1.16,1.16,0,0,1,.32-.83,1.52,1.52,0,0,1,1.21-.5,1.42,1.42,0,0,1,1.31.66,1.19,1.19,0,0,1,.19.67v2.67h2.48a.87.87,0,0,1,.7.31,1.39,1.39,0,0,1,.33.95,1.24,1.24,0,0,1-.54,1.11,1,1,0,0,1-.49.13H172v8.86a1.18,1.18,0,0,1-.28.8,1.6,1.6,0,0,1-1.25.5,1.44,1.44,0,0,1-1.31-.63,1.15,1.15,0,0,1-.19-.67V96.62h-2.48a.91.91,0,0,1-.61-.23,1.28,1.28,0,0,1-.42-1,1.18,1.18,0,0,1,.54-1.1.85.85,0,0,1,.49-.14Z" transform="translate(-6.4 -11.46)"/><path class="cls-1" d="M190.78,93.68a7,7,0,0,1,4.08,1.07,1.64,1.64,0,0,1,.84,1.36,1.52,1.52,0,0,1-.28.86,1.26,1.26,0,0,1-1.06.53,1.64,1.64,0,0,1-1-.41,4.25,4.25,0,0,0-2.67-.93c-1.27,0-1.9.36-1.9,1.08a1.08,1.08,0,0,0,.68,1,7.54,7.54,0,0,0,.76.29,35.91,35.91,0,0,1,3.94,1.35,3.26,3.26,0,0,1,2,3.11,3.45,3.45,0,0,1-1.58,3,6.61,6.61,0,0,1-3.72.91,7.45,7.45,0,0,1-4.42-1.22,2.15,2.15,0,0,1-1.13-1.66,1.37,1.37,0,0,1,.27-.8,1.15,1.15,0,0,1,1-.53,1.31,1.31,0,0,1,.92.41,4.64,4.64,0,0,0,3.34,1.26c1.4,0,2.1-.38,2.1-1.13,0-.51-.35-.94-1.06-1.28-.45-.21-1.54-.58-3.27-1.12-1.88-.57-2.82-1.71-2.82-3.44a3.32,3.32,0,0,1,1.94-3.06A6.24,6.24,0,0,1,190.78,93.68Z" transform="translate(-6.4 -11.46)"/><path class="cls-1" d="M203.28,105.66l-5-9.75A1.33,1.33,0,0,1,199,94a1.69,1.69,0,0,1,.81-.21,1.62,1.62,0,0,1,1.5,1.07l3.65,7.75,3.32-7.75a1.48,1.48,0,0,1,1.4-1,2.18,2.18,0,0,1,1,.24,1.24,1.24,0,0,1,.77,1.17,1.78,1.78,0,0,1-.19.77l-7.12,14.93a1.57,1.57,0,0,1-1.45,1,2,2,0,0,1-.62-.1,1.24,1.24,0,0,1-.95-1.25,1.37,1.37,0,0,1,.14-.58Z" transform="translate(-6.4 -11.46)"/><path class="cls-1" d="M218.67,93.68a7.07,7.07,0,0,1,4.09,1.07,1.65,1.65,0,0,1,.83,1.36,1.45,1.45,0,0,1-.28.86,1.25,1.25,0,0,1-1.06.53,1.64,1.64,0,0,1-1-.41,4.25,4.25,0,0,0-2.67-.93c-1.26,0-1.9.36-1.9,1.08a1.08,1.08,0,0,0,.68,1,8,8,0,0,0,.77.29,35.42,35.42,0,0,1,3.93,1.35,3.24,3.24,0,0,1,2,3.11,3.47,3.47,0,0,1-1.57,3,6.66,6.66,0,0,1-3.73.91,7.47,7.47,0,0,1-4.42-1.22,2.17,2.17,0,0,1-1.13-1.66,1.37,1.37,0,0,1,.27-.8,1.15,1.15,0,0,1,1-.53,1.35,1.35,0,0,1,.93.41,4.61,4.61,0,0,0,3.33,1.26c1.4,0,2.1-.38,2.1-1.13,0-.51-.35-.94-1.05-1.28-.46-.21-1.55-.58-3.28-1.12s-2.82-1.71-2.82-3.44a3.32,3.32,0,0,1,1.94-3.06A6.27,6.27,0,0,1,218.67,93.68Z" transform="translate(-6.4 -11.46)"/><path class="cls-1" d="M229.52,94.12V91.45a1.16,1.16,0,0,1,.31-.83,1.54,1.54,0,0,1,1.21-.5,1.44,1.44,0,0,1,1.32.66,1.28,1.28,0,0,1,.19.67v2.67H235a.89.89,0,0,1,.71.31,1.39,1.39,0,0,1,.33.95,1.24,1.24,0,0,1-.54,1.11,1,1,0,0,1-.5.13h-2.47v8.86a1.19,1.19,0,0,1-.29.8,1.58,1.58,0,0,1-1.24.5,1.44,1.44,0,0,1-1.31-.63,1.15,1.15,0,0,1-.19-.67V96.62H227a.91.91,0,0,1-.61-.23,1.28,1.28,0,0,1-.42-1,1.18,1.18,0,0,1,.54-1.1.85.85,0,0,1,.49-.14Z" transform="translate(-6.4 -11.46)"/><path class="cls-1" d="M241,101a3.18,3.18,0,0,0,1,2.3,3.62,3.62,0,0,0,2.58,1,4.06,4.06,0,0,0,3-1.3,1.05,1.05,0,0,1,.8-.36,1.32,1.32,0,0,1,1,.43,1.39,1.39,0,0,1,.4,1,1.73,1.73,0,0,1-.65,1.25,6.42,6.42,0,0,1-4.65,1.61,6.53,6.53,0,0,1-4.31-1.43,6.33,6.33,0,0,1-2.29-5.18,6.84,6.84,0,0,1,1.3-4.2,5.84,5.84,0,0,1,5-2.43,5.59,5.59,0,0,1,4.39,2A5.48,5.48,0,0,1,250,99.36a1.91,1.91,0,0,1-.34,1.28,1.61,1.61,0,0,1-1.23.4Zm0-2.36h5.53c.25,0,.37-.1.37-.29a2.05,2.05,0,0,0-.53-1.28,2.75,2.75,0,0,0-2.27-1,3.15,3.15,0,0,0-1.63.45A2.89,2.89,0,0,0,241,98.68Z" transform="translate(-6.4 -11.46)"/><path class="cls-1" d="M256.29,95.75a3.74,3.74,0,0,1,3.47-2,3.48,3.48,0,0,1,2.08.65,3,3,0,0,1,1.05,1.44,4.3,4.3,0,0,1,3.84-2.09,3.4,3.4,0,0,1,3.23,2,6.25,6.25,0,0,1,.62,2.9v6.9a1.14,1.14,0,0,1-.33.84,1.59,1.59,0,0,1-1.18.44,1.33,1.33,0,0,1-1.35-.74,1.13,1.13,0,0,1-.12-.54V98.89a3.51,3.51,0,0,0-.28-1.45,1.49,1.49,0,0,0-1.4-1,2.13,2.13,0,0,0-1.6.85,3.15,3.15,0,0,0-.78,2.08v6.18a1.11,1.11,0,0,1-.31.79,1.53,1.53,0,0,1-1.18.46,1.42,1.42,0,0,1-1.34-.67,1.09,1.09,0,0,1-.15-.58V99a4,4,0,0,0-.31-1.65,1.36,1.36,0,0,0-1.28-.94,2.11,2.11,0,0,0-1.65,1,3.35,3.35,0,0,0-.78,2.15v6a1.12,1.12,0,0,1-.28.79,1.55,1.55,0,0,1-1.22.49,1.39,1.39,0,0,1-1.35-.7,1.21,1.21,0,0,1-.13-.58V95.07a1.16,1.16,0,0,1,.3-.81,1.38,1.38,0,0,1,2.36.83Z" transform="translate(-6.4 -11.46)"/></g></g></svg>